<?xml version="1.0" encoding="UTF-8"?>
<svg id="Calque_1" data-name="Calque 1" xmlns="http://www.w3.org/2000/svg" viewBox="0 0 421.63 607.04">
  <defs>
    <style>
      .cls-1 {
        fill: #fff;
      }
    </style>
  </defs>
  <path class="cls-1" d="M231.8,16.29l-15.75,31.51-17.47,34.94s-.02-.03-.03-.04c-1.07-1.42-2.16-2.82-3.26-4.21-6.31-7.89-13.25-15.25-20.75-22.03-6.52-5.89-13.46-11.33-20.77-16.26-6.63-4.47-13.55-8.53-20.75-12.14-6.7-3.36-13.63-6.32-20.77-8.86-6.75-2.41-13.67-4.43-20.75-6.05-6.79-1.56-13.72-2.74-20.77-3.53-6.81-.77-13.74-1.17-20.75-1.17v371.46h363.63L254.97,62.64l-23.18-46.35ZM71.07,30.87c35.99,4.57,69.26,20.82,95.33,46.89,8.07,8.07,15.34,17.05,21.47,26.36l-16.68,33.37-100.12,200.24V30.87ZM83.53,359.19L231.8,62.65l148.27,296.53H83.53Z"/>
  <polygon class="cls-1" points="29.22 8.46 7.93 8.46 7.93 397.24 7.93 418.29 29.22 418.29 413.61 418.29 413.61 397.24 29.22 397.24 29.22 8.46"/>
  <g>
    <path class="cls-1" d="M36.54,498.83h22.28v21.65c-4.94,6.35-12.94,10.27-22.67,10.27-15.69,0-27.69-12.47-27.69-28.39s11.92-28,27.61-28c10.82,0,20.24,5.57,23.14,13.65l-8.16,4c-2.43-5.26-8.08-8.71-14.98-8.71-10.59,0-18.12,7.84-18.12,19.06s7.69,19.53,18.2,19.53c5.73,0,10.2-1.65,13.49-4.47v-9.8h-13.1v-8.78Z"/>
    <path class="cls-1" d="M103.21,530.05l-13.65-22.04h-8.08v22.04h-9.18v-54.9h20.63c9.18,0,16.86,7.14,16.86,16.31,0,7.61-4,13.33-10.43,15.53l14.98,23.06h-11.14ZM81.48,499.22h11.14c4.55,0,7.92-3.29,7.92-7.76s-3.37-7.45-7.92-7.45h-11.14v15.22Z"/>
    <path class="cls-1" d="M156.62,475.15v8.78h-23.22v12.94h20.71v8.78h-20.71v15.61h23.22v8.78h-32.39v-54.9h32.39Z"/>
    <path class="cls-1" d="M201.48,475.15v8.78h-23.22v12.94h20.71v8.78h-20.71v15.61h23.22v8.78h-32.39v-54.9h32.39Z"/>
    <path class="cls-1" d="M221.94,475.15l25.96,37.18v-37.18h9.26v54.9h-7.92l-26.12-37.18v37.18h-9.18v-54.9h8Z"/>
    <path class="cls-1" d="M280.29,475.15v46.12h26.28v8.78h-35.45v-54.9h9.18Z"/>
    <path class="cls-1" d="M350.8,519.07h-23.22l-4.31,10.98h-9.73l21.88-54.9h7.69l21.88,54.9h-9.96l-4.23-10.98ZM347.35,510.28l-8.16-21.02-8.24,21.02h16.39Z"/>
    <path class="cls-1" d="M374.64,475.15h19.92c9.18,0,16.47,6.43,16.47,14.2,0,5.41-3.61,10.43-8.31,11.69,6.27,1.02,10.98,6.59,10.98,13.57,0,8.71-7.53,15.45-16.71,15.45h-22.35v-54.9ZM394.33,497.89c4.16,0,7.45-3.14,7.45-7.14s-3.37-6.82-7.45-6.82h-10.51v13.96h10.51ZM396.37,521.26c4.55,0,8-3.53,8-7.92s-3.53-8-7.92-8h-12.63v15.92h12.55Z"/>
  </g>
  <g>
    <path class="cls-1" d="M24.04,598.59c-8.82,0-15.58-6.63-15.58-15.46s6.69-15.51,15.52-15.51c5.78,0,10.65,2.86,12.84,7.24l-5.72,3.23c-1.22-2.37-3.89-3.96-7.12-3.96-5.11,0-8.82,3.89-8.82,9s3.77,8.94,8.88,8.94c3.47,0,6.33-1.64,7.67-4.38l6.02,2.74c-2.25,4.93-7.48,8.15-13.69,8.15Z"/>
    <path class="cls-1" d="M63.53,568.1l-.43,6.39c-1.03-.36-2.37-.61-3.53-.61-2.25,0-5.48,1.82-7.06,5.11v18.98h-6.75v-29.75h6.75v4.08c1.52-2.86,4.87-4.68,7.61-4.68,1.4,0,2.56.18,3.41.49Z"/>
    <path class="cls-1" d="M97,584.71h-22.63c.73,4.81,4.02,7.73,8.82,7.73,3.35,0,6.39-1.46,7.79-3.77l5.41,3.47c-2.19,4.02-7.18,6.45-13.32,6.45-8.58,0-15.45-6.75-15.45-15.64s6.75-15.33,15.33-15.33c8.03,0,14.3,6.21,14.3,14.18,0,.79-.06,2.01-.24,2.92ZM90.12,579.54c-.37-3.71-3.47-6.33-7.54-6.33s-6.94,2.43-7.97,6.33h15.52ZM85.31,564.82h-6.27l5.05-9.13h8.15l-6.94,9.13Z"/>
    <path class="cls-1" d="M134.42,568.23v29.75h-6.75v-4.02c-1.58,2.68-5.54,4.63-9.49,4.63-8.03,0-14.3-6.82-14.3-15.51s6.27-15.46,14.3-15.46c3.96,0,7.91,1.95,9.49,4.63v-4.02h6.75ZM127.66,587.7v-9.13c-1.46-2.62-4.68-4.5-8.09-4.5-5.11,0-9,3.83-9,9.01s3.89,9.07,9,9.07c3.35,0,6.63-1.89,8.09-4.44Z"/>
    <path class="cls-1" d="M162.28,597.67c-.97.49-2.37.73-3.65.73-6.57,0-11.2-4.2-11.2-11.56v-12.17h-5.72v-6.45h5.72v-7.97h6.75v7.97h7.79v6.45h-7.79v11.86c0,3.47,2.43,5.54,5.41,5.54.73,0,1.7-.18,2.31-.36l.37,5.96Z"/>
    <path class="cls-1" d="M178.53,558.73c0,2.43-2.01,4.38-4.38,4.38s-4.32-1.95-4.32-4.38,1.95-4.32,4.32-4.32,4.38,2.01,4.38,4.32ZM177.5,568.23v29.75h-6.75v-29.75h6.75Z"/>
    <path class="cls-1" d="M217.05,583.13c0,8.82-6.75,15.46-15.46,15.46s-15.39-6.63-15.39-15.46,6.69-15.51,15.39-15.51,15.46,6.69,15.46,15.51ZM192.89,583.13c0,5.05,3.77,8.94,8.7,8.94s8.76-3.89,8.76-8.94-3.83-9-8.76-9-8.7,3.89-8.7,9Z"/>
    <path class="cls-1" d="M253.8,581v16.98h-6.81v-15.88c0-4.81-2.8-7.73-7-7.73-3.04,0-5.96,1.58-7.48,4.14v19.47h-6.75v-29.75h6.75v4.02c1.82-2.86,5.35-4.63,9.13-4.63,7.42,0,12.17,5.17,12.17,13.39Z"/>
  </g>
</svg>