<?xml version="1.0" encoding="UTF-8"?>
<svg id="Calque_1" data-name="Calque 1" xmlns="http://www.w3.org/2000/svg" viewBox="0 0 421.63 426.35">
  <defs>
    <style>
      .cls-1 {
        fill: #fff;
      }
    </style>
  </defs>
  <path class="cls-1" d="M231.8,16.29l-15.75,31.51-17.47,34.94s-.02-.03-.03-.04c-1.07-1.42-2.16-2.82-3.26-4.21-6.31-7.89-13.25-15.25-20.75-22.03-6.52-5.89-13.46-11.33-20.77-16.26-6.63-4.47-13.55-8.53-20.75-12.14-6.7-3.36-13.63-6.32-20.77-8.86-6.75-2.41-13.67-4.43-20.75-6.05-6.79-1.56-13.72-2.74-20.77-3.53-6.81-.77-13.74-1.17-20.75-1.17v371.46h363.63L254.97,62.64l-23.18-46.35ZM71.07,30.87c35.99,4.57,69.26,20.82,95.33,46.89,8.07,8.07,15.34,17.05,21.47,26.36l-16.68,33.37-100.12,200.24V30.87ZM83.53,359.19L231.8,62.65l148.27,296.53H83.53Z"/>
  <polygon class="cls-1" points="29.22 8.46 7.93 8.46 7.93 397.24 7.93 418.29 29.22 418.29 413.61 418.29 413.61 397.24 29.22 397.24 29.22 8.46"/>
</svg>