<?xml version="1.0" encoding="UTF-8"?>
<svg id="Calque_1" xmlns="http://www.w3.org/2000/svg" version="1.1" viewBox="0 0 176.9 221.5">
  <!-- Generator: Adobe Illustrator 29.5.0, SVG Export Plug-In . SVG Version: 2.1.0 Build 137)  -->
  <defs>
    <style>
      .st0 {
        fill: #fff;
      }
    </style>
  </defs>
  <polygon class="st0" points="97.5 4.4 83 33.4 78.3 42.8 71.1 57.3 97.5 4.4 176.9 163.1 176.9 163.1 97.5 4.4"/>
  <g>
    <g>
      <path class="st0" d="M35,196.4l-8.2,24.8h-3.4l-5.8-16.7-5.8,16.7h-3.4L0,196.4h4.4l5.7,17.9,6-17.9h3l6,17.9,5.7-17.9h4.3Z"/>
      <path class="st0" d="M60.4,208.7c0,7.2-5.4,12.8-12.5,12.8s-12.6-5.5-12.6-12.8,5.4-12.7,12.6-12.7,12.5,5.5,12.5,12.7ZM39.6,208.7c0,4.9,3.6,8.7,8.3,8.7s8.3-3.8,8.3-8.7-3.6-8.7-8.3-8.7-8.3,3.7-8.3,8.7Z"/>
      <path class="st0" d="M88.4,208.7c0,7.2-5.4,12.8-12.5,12.8s-12.6-5.5-12.6-12.8,5.4-12.7,12.6-12.7,12.5,5.5,12.5,12.7ZM67.5,208.7c0,4.9,3.6,8.7,8.3,8.7s8.3-3.8,8.3-8.7-3.6-8.7-8.3-8.7-8.3,3.7-8.3,8.7Z"/>
      <path class="st0" d="M112.5,208.7c0,7.1-5.3,12.5-12.4,12.5h-8.1v-24.7h8.1c7,0,12.4,5.2,12.4,12.3ZM108.3,208.7c0-4.8-3.3-8.3-7.8-8.3h-4.3v16.8h4.3c4.5,0,7.8-3.6,7.8-8.5Z"/>
      <path class="st0" d="M120.3,196.4v20.8h11.8v4h-16v-24.7h4.1Z"/>
      <path class="st0" d="M150.3,216.2h-10.5l-1.9,4.9h-4.4l9.9-24.7h3.5l9.9,24.7h-4.5l-1.9-4.9ZM148.8,212.2l-3.7-9.5-3.7,9.5h7.4Z"/>
      <path class="st0" d="M159.3,196.4h9c4.1,0,7.4,2.9,7.4,6.4s-1.6,4.7-3.7,5.3c2.8.5,4.9,3,4.9,6.1s-3.4,7-7.5,7h-10.1v-24.7ZM168.2,206.7c1.9,0,3.4-1.4,3.4-3.2s-1.5-3.1-3.4-3.1h-4.7v6.3h4.7ZM169.1,217.2c2,0,3.6-1.6,3.6-3.6s-1.6-3.6-3.6-3.6h-5.7v7.2h5.7Z"/>
    </g>
    <g>
      <path class="st0" d="M97.5,4.4l-14.5,29C68.2,13.8,44.6,1,18.2,1v162.2h158.7L97.5,4.4ZM27.4,10.8c15.7,2,30.2,9.1,41.6,20.5,3.5,3.5,6.7,7.4,9.4,11.5l-7.3,14.6-43.7,87.4V10.8ZM97.5,24.6l64.7,129.4H32.8L97.5,24.6Z"/>
      <polygon class="st0" points="9.1 170.7 9.1 0 0 0 0 170.7 0 179.7 9.1 179.7 176.9 179.7 176.9 170.7 9.1 170.7"/>
    </g>
  </g>
</svg>