<?xml version="1.0" encoding="utf-8"?>
<!-- Generator: Adobe Illustrator 27.4.1, SVG Export Plug-In . SVG Version: 6.00 Build 0)  -->
<svg version="1.1" xmlns="http://www.w3.org/2000/svg" xmlns:xlink="http://www.w3.org/1999/xlink" x="0px" y="0px"
	 viewBox="0 0 291.9 385.7" style="enable-background:new 0 0 291.9 385.7;" xml:space="preserve">
<style type="text/css">
	.st0{fill:#9E9A94;}
</style>
<g id="Pictogramme">
	<g>
		<g>
			<path class="st0" d="M160.5,9.9l-23.4,46.7C113.3,25,75.3,4.4,32.7,4.4v261.2h0h255.7L160.5,9.9z M47.5,20.2
				c25.3,3.2,48.7,14.6,67,33c5.7,5.7,10.8,12,15.1,18.5l-11.7,23.5L47.5,235.9V20.2z M160.5,42.5L264.8,251H56.3L160.5,42.5z"/>
			<polygon class="st0" points="18.1,277.8 18.1,2.8 3.5,2.8 3.5,277.8 3.5,292.4 18.1,292.4 288.4,292.4 288.4,277.8 			"/>
		</g>
	</g>
</g>
<g id="Texte">
	<g>
		<path class="st0" d="M49.2,318.6v63.8H39.1v-6c-2.4,4-8.3,6.9-14.2,6.9c-12,0-21.4-10.2-21.4-23.2c0-12.9,9.4-23.2,21.4-23.2
			c5.9,0,11.9,2.9,14.2,6.9v-25.3H49.2z M39.1,367v-13.7c-2.2-3.9-7-6.7-12.1-6.7c-7.7,0-13.5,5.7-13.5,13.5s5.8,13.6,13.5,13.6
			C32,373.6,36.9,370.8,39.1,367z"/>
		<path class="st0" d="M65,318.6h23.2c10.7,0,19.1,7.5,19.1,16.5c0,6.3-4.2,12.1-9.7,13.6c7.3,1.2,12.8,7.7,12.8,15.8
			c0,10.1-8.8,18-19.4,18H65V318.6z M87.9,345c4.8,0,8.7-3.6,8.7-8.3c0-4.5-3.9-7.9-8.7-7.9H75.7V345H87.9z M90.3,372.2
			c5.3,0,9.3-4.1,9.3-9.2c0-5.2-4.1-9.3-9.2-9.3H75.7v18.5H90.3z"/>
		<path class="st0" d="M134,318.6v53.6h30.5v10.2h-41.2v-63.8H134z"/>
		<path class="st0" d="M216,369.6h-27l-5,12.8h-11.3l25.4-63.8h8.9l25.4,63.8h-11.6L216,369.6z M212,359.4l-9.5-24.4l-9.6,24.4H212z
			"/>
		<path class="st0" d="M243.7,318.6h23.2c10.7,0,19.1,7.5,19.1,16.5c0,6.3-4.2,12.1-9.7,13.6c7.3,1.2,12.8,7.7,12.8,15.8
			c0,10.1-8.8,18-19.4,18h-26V318.6z M266.6,345c4.8,0,8.7-3.6,8.7-8.3c0-4.5-3.9-7.9-8.7-7.9h-12.2V345H266.6z M268.9,372.2
			c5.3,0,9.3-4.1,9.3-9.2c0-5.2-4.1-9.3-9.2-9.3h-14.7v18.5H268.9z"/>
	</g>
</g>
</svg>
