<svg xmlns="http://www.w3.org/2000/svg" viewBox="0 0 24 24"><g fill="none"><path fill="#E2161A" d="M21.566 2.394a.51.51 0 0 1 .116.521c-.24.673-.471 1.737-.735 3.15-.264 1.413-.495 3.211-.495 5.914s.23 4.5.495 5.915c.264 1.412.495 2.476.735 3.15a.48.48 0 0 1-.117.52.481.481 0 0 1-.522.118c-.673-.24-1.737-.471-3.15-.735-1.413-.264-3.211-.495-5.914-.495s-4.501.23-5.915.495c-1.412.264-2.476.495-3.15.735a.508.508 0 0 1-.52-.116.501.501 0 0 1-.112-.518c.239-.673.47-1.737.734-3.149.265-1.414.495-3.212.495-5.915s-.23-4.5-.495-5.914c-.263-1.412-.495-2.476-.734-3.15a.481.481 0 0 1 .116-.521.481.481 0 0 1 .522-.117c.673.239 1.737.47 3.15.734 1.413.265 3.211.495 5.914.495s4.501-.23 5.915-.495c1.412-.263 2.476-.495 3.15-.734a.501.501 0 0 1 .517.112z"/><path fill="#FFF" d="M10.08 18.318c-.042 0-.059-.02-.059-.061v-.397H9.61v.458h-.16c-.043 0-.06-.02-.06-.061v-.982h.16c.043 0 .06.02.06.061v.353h.411v-.414h.16c.042 0 .059.02.059.061v.982h-.16zm.336-.52c0 .369.157.547.449.547.309 0 .469-.2.469-.55 0-.369-.157-.547-.45-.547-.308 0-.468.198-.468.55zm.686-.002c0 .259-.075.375-.228.375-.149 0-.226-.098-.226-.375 0-.26.075-.373.228-.373.149 0 .226.095.226.373zm.812.522v-.872h.235c.04 0 .061-.016.061-.058v-.113h-.751c-.043 0-.06.02-.06.063v.108h.296v.81c0 .041.017.062.06.062h.16zm1.17-.19c-.085.02-.205.033-.291.033-.17 0-.214-.025-.214-.205v-.096h.36c.041 0 .061-.017.061-.059v-.112h-.42v-.243h.406c.04 0 .06-.016.06-.058v-.113h-.685v.68c0 .273.051.377.375.377.086 0 .211-.007.3-.027.03-.008.047-.03.047-.065v-.112zm.823 0a.98.98 0 0 1-.241.033c-.145 0-.195-.025-.195-.205v-.62c0-.04-.017-.06-.06-.06h-.159v.68c0 .272.055.376.357.376.082 0 .16-.007.25-.027.03-.008.048-.03.048-.065v-.112zm.44.204c.227 0 .37-.123.37-.308 0-.36-.469-.31-.469-.486 0-.064.033-.108.17-.108a.87.87 0 0 1 .244.04v-.108a.064.064 0 0 0-.046-.065.779.779 0 0 0-.24-.034c-.236 0-.345.128-.345.288 0 .344.47.287.47.484 0 .086-.058.13-.192.13a1.16 1.16 0 0 1-.267-.04v.108c0 .031.017.053.045.064a.838.838 0 0 0 .26.035zm-8.342-3.689c-.22 0-.309-.114-.309-.326V9.65h.952c.22 0 .308.114.308.325v4.668h-.951zm0-5.724c-.22 0-.309-.115-.309-.326v-.837h.952c.22 0 .308.115.308.326v.837h-.951zm3.188 4.755c.211.07.422.106.616.106.801 0 1.145-.502 1.145-1.585 0-1.119-.282-1.647-.828-1.647-.361 0-.643.185-.933.475v2.651zm-1.26-5.918h.951c.22 0 .309.115.309.326v1.982c.343-.335.81-.546 1.277-.546 1.39 0 1.814 1.1 1.814 2.474 0 1.656-.696 2.722-2.537 2.722a5.66 5.66 0 0 1-1.497-.203c-.229-.07-.317-.124-.317-.343V7.756zm5.381 6.887c-.22 0-.308-.114-.308-.326V9.65h.95c.221 0 .309.114.309.325v4.668h-.951zm0-5.724c-.22 0-.308-.115-.308-.326v-.837h.95c.221 0 .309.115.309.326v.837h-.951zm5.072 4.289c0 .933-.757 1.506-1.822 1.506-.494 0-.934-.062-1.286-.177a.35.35 0 0 1-.212-.334v-.634c.406.105.934.194 1.277.194.573 0 .802-.168.802-.485 0-.801-2.132-.607-2.132-2.255 0-.783.529-1.435 1.709-1.435.493 0 .854.08 1.18.176.141.044.22.185.22.335v.634a4.335 4.335 0 0 0-1.171-.194c-.581 0-.705.176-.705.414 0 .67 2.14.528 2.14 2.255z"/></g></svg>